<?xml version="1.0" encoding="UTF-8"?>
<svg version="1.1" xmlns="http://www.w3.org/2000/svg" width="192" height="192">
<path d="M0 0 C0.71303284 -0.00698914 1.42606567 -0.01397827 2.16070557 -0.0211792 C20.95440492 -0.12339235 37.79953477 5.43946121 53.625 15.625 C54.26953125 16.02074219 54.9140625 16.41648437 55.578125 16.82421875 C56.96708581 17.69718711 58.3042947 18.65184873 59.625 19.625 C59.625 20.285 59.625 20.945 59.625 21.625 C60.181875 21.8725 60.73875 22.12 61.3125 22.375 C66.73455154 25.30583867 71.04924409 29.63614467 74.625 34.625 C74.625 35.285 74.625 35.945 74.625 36.625 C75.285 36.625 75.945 36.625 76.625 36.625 C91.31475146 53.73780325 96.18120069 75.08891404 96.25 97 C96.25698914 97.71303284 96.26397827 98.42606567 96.2711792 99.16070557 C96.37339235 117.95440492 90.81053879 134.79953477 80.625 150.625 C80.22925781 151.26953125 79.83351562 151.9140625 79.42578125 152.578125 C78.55281289 153.96708581 77.59815127 155.3042947 76.625 156.625 C75.965 156.625 75.305 156.625 74.625 156.625 C74.3775 157.181875 74.13 157.73875 73.875 158.3125 C70.94416133 163.73455154 66.61385533 168.04924409 61.625 171.625 C60.965 171.625 60.305 171.625 59.625 171.625 C59.625 172.285 59.625 172.945 59.625 173.625 C42.51219675 188.31475146 21.16108596 193.18120069 -0.75 193.25 C-1.46303284 193.25698914 -2.17606567 193.26397827 -2.91070557 193.2711792 C-21.70440492 193.37339235 -38.54953477 187.81053879 -54.375 177.625 C-55.01953125 177.22925781 -55.6640625 176.83351562 -56.328125 176.42578125 C-57.71708581 175.55281289 -59.0542947 174.59815127 -60.375 173.625 C-60.375 172.965 -60.375 172.305 -60.375 171.625 C-60.931875 171.3775 -61.48875 171.13 -62.0625 170.875 C-67.48455154 167.94416133 -71.79924409 163.61385533 -75.375 158.625 C-75.375 157.965 -75.375 157.305 -75.375 156.625 C-76.035 156.625 -76.695 156.625 -77.375 156.625 C-92.06475146 139.51219675 -96.93120069 118.16108596 -97 96.25 C-97.00698914 95.53696716 -97.01397827 94.82393433 -97.0211792 94.08929443 C-97.12339235 75.29559508 -91.56053879 58.45046523 -81.375 42.625 C-80.97925781 41.98046875 -80.58351563 41.3359375 -80.17578125 40.671875 C-79.30281289 39.28291419 -78.34815127 37.9457053 -77.375 36.625 C-76.715 36.625 -76.055 36.625 -75.375 36.625 C-75.1275 36.068125 -74.88 35.51125 -74.625 34.9375 C-71.69416133 29.51544846 -67.36385533 25.20075591 -62.375 21.625 C-61.715 21.625 -61.055 21.625 -60.375 21.625 C-60.375 20.965 -60.375 20.305 -60.375 19.625 C-43.26219675 4.93524854 -21.91108596 0.06879931 0 0 Z " fill="#FCFDFD" transform="translate(96.375,-0.625)"/>
<path d="M0 0 C2.75667584 1.13668127 4.37960743 2.43053758 6.53125 4.4921875 C9.82398177 7.55127659 13.1616716 10.47744113 16.65625 13.3046875 C21.3454102 17.10971833 25.96323026 20.98899414 30.56274414 24.90112305 C34.03811312 27.85118755 37.55046503 30.74857597 41.09375 33.6171875 C44.71603269 36.55930357 48.21180147 39.59386803 51.65625 42.7421875 C55.40160801 46.15848051 59.20439596 49.16050325 63.40625 51.9921875 C63.07625 53.3121875 62.74625 54.6321875 62.40625 55.9921875 C60.42625 55.9921875 58.44625 55.9921875 56.40625 55.9921875 C56.40625 67.2121875 56.40625 78.4321875 56.40625 89.9921875 C42.40625 87.9921875 42.40625 87.9921875 41.40625 86.9921875 C41.41936694 84.69330101 41.48942057 82.39471402 41.58203125 80.09765625 C42.79381344 63.94764295 42.79381344 63.94764295 37.61328125 49.44921875 C34.78646899 46.80896569 31.62228538 44.83847312 28.22363281 43.01171875 C25.51076478 41.48983039 23.25918583 39.51500994 20.90625 37.4921875 C20.03742188 36.79351562 19.16859375 36.09484375 18.2734375 35.375 C16.06029962 33.53574372 13.91931761 31.66599972 11.7890625 29.734375 C10.85416992 28.8980957 10.85416992 28.8980957 9.90039062 28.04492188 C8.67686527 26.94668961 7.46406904 25.83635626 6.26367188 24.71289062 C3.01531091 21.79293568 3.01531091 21.79293568 -1.125 20.84375 C-4.45139475 22.39115515 -7.01591396 24.56252123 -9.71875 26.9921875 C-10.87817816 28.00474056 -12.03834526 29.01644807 -13.19921875 30.02734375 C-13.77333496 30.53152832 -14.34745117 31.03571289 -14.93896484 31.55517578 C-17.25836254 33.56933554 -19.6413322 35.50005017 -22.03125 37.4296875 C-22.85254395 38.12860107 -23.67383789 38.82751465 -24.52001953 39.54760742 C-26.74818219 41.3196958 -28.77399534 42.74186517 -31.18188477 44.19482422 C-36.10110139 47.39609394 -40.71626089 50.66185806 -42.27340698 56.57168579 C-43.10595096 63.91768525 -42.56571141 71.32235742 -42.09375 78.6796875 C-40.71142478 100.33244241 -40.71142478 100.33244241 -43.95703125 104.91851807 C-47.77706782 108.4730175 -53.23562153 111.9921875 -58.59375 111.9921875 C-58.59375 93.5121875 -58.59375 75.0321875 -58.59375 55.9921875 C-60.24375 55.9921875 -61.89375 55.9921875 -63.59375 55.9921875 C-63.92375 54.6721875 -64.25375 53.3521875 -64.59375 51.9921875 C-51.43417008 40.63844775 -51.43417008 40.63844775 -45.09375 35.4921875 C-40.86582328 32.06010581 -36.71851016 28.54663245 -32.59375 24.9921875 C-27.56760349 20.66249214 -22.4969996 16.40175522 -17.328125 12.2421875 C-15.3172334 10.58751099 -13.36323863 8.91212566 -11.421875 7.1796875 C-10.62064209 6.47706787 -10.62064209 6.47706787 -9.80322266 5.76025391 C-8.30008234 4.4386948 -6.80980124 3.10255155 -5.3203125 1.765625 C-2.59375 -0.0078125 -2.59375 -0.0078125 0 0 Z " fill="#094F8E" transform="translate(101.59375,14.0078125)"/>
<path d="M0 0 C1.92102539 -0.01160156 1.92102539 -0.01160156 3.88085938 -0.0234375 C13.99309841 -0.00283182 23.57978556 1.0576353 33.3125 3.875 C34.68148437 4.26558594 34.68148437 4.26558594 36.078125 4.6640625 C37.06039062 4.95410156 37.06039062 4.95410156 38.0625 5.25 C38.0625 5.58 38.0625 5.91 38.0625 6.25 C36.77956055 6.26401855 36.77956055 6.26401855 35.47070312 6.27832031 C12.90634453 6.26982267 12.90634453 6.26982267 -8.9375 11.25 C-9.61345215 11.48992676 -10.2894043 11.72985352 -10.98583984 11.97705078 C-30.19827966 18.91620895 -51.3392204 30.8525806 -62.9375 48.25 C-65.98825084 48.516487 -68.83376179 48.59757146 -71.8828125 48.54296875 C-72.7678244 48.53872391 -73.6528363 48.53447906 -74.56466675 48.53010559 C-77.39758445 48.51328259 -80.22979652 48.47562425 -83.0625 48.4375 C-84.98045849 48.42245782 -86.89842811 48.40876861 -88.81640625 48.39648438 C-93.52371031 48.36336727 -98.23048544 48.31156055 -102.9375 48.25 C-101.97773536 47.12713441 -101.01752615 46.0046488 -100.05712891 44.88232422 C-99.52246002 44.2571994 -98.98779114 43.63207458 -98.43692017 42.98800659 C-92.09181607 35.63327508 -84.86687606 29.83098771 -76.9375 24.25 C-76.39319336 23.86666504 -75.84888672 23.48333008 -75.28808594 23.08837891 C-53.2179882 7.73218291 -26.8171375 -0.16146796 0 0 Z " fill="#8FBF44" transform="translate(126.9375,108.75)"/>
<path d="M0 0 C0 0.33 0 0.66 0 1 C-1.30453125 1.17015625 -2.6090625 1.3403125 -3.953125 1.515625 C-25.35682614 4.42564243 -45.36407183 11.40030205 -61 27 C-62.42952774 29.0392909 -63.827793 31.10100681 -65.1875 33.1875 C-67.28901438 36.02172629 -68.71207784 37.72695825 -72.22949219 38.47265625 C-77.85967873 38.94814225 -83.38979444 38.56501562 -89 38 C-76.39214601 18.86200154 -52.98967436 6.59188786 -31.02734375 1.8359375 C-20.70828003 -0.10097752 -10.46827682 -0.36189945 0 0 Z " fill="#67963E" transform="translate(167,119)"/>
<path d="M0 0 C-1.02738281 0.4846875 -2.05476563 0.969375 -3.11328125 1.46875 C-11.71395666 5.60106919 -19.50468891 10.02383906 -27 16 C-27.85464844 16.6290625 -28.70929688 17.258125 -29.58984375 17.90625 C-32.17154425 20.14902386 -33.57528313 22.36031376 -35.375 25.25 C-38.13140062 28.87908344 -39.2884155 29.88019977 -43.8515625 30.6484375 C-47.60206999 30.73180182 -51.27697071 30.43629249 -55 30 C-42.43538678 14.53586066 -26.21740753 3.67186586 -6.6875 -0.75 C-4.07869086 -0.99267992 -2.48116913 -0.69832479 0 0 Z " fill="#47712D" transform="translate(164,127)"/>
<path d="M0 0 C5.61 0 11.22 0 17 0 C17 5.94 17 11.88 17 18 C11.39 18 5.78 18 0 18 C0 12.06 0 6.12 0 0 Z " fill="#0B5190" transform="translate(104,71)"/>
<path d="M0 0 C1.58206422 0.00574487 3.16410406 0.01876032 4.74609375 0.03515625 C7.53046875 0.05578125 10.31484375 0.07640625 13.18359375 0.09765625 C13.18359375 5.70765625 13.18359375 11.31765625 13.18359375 17.09765625 C7.24359375 17.09765625 1.30359375 17.09765625 -4.81640625 17.09765625 C-4.83703125 14.47828125 -4.85765625 11.85890625 -4.87890625 9.16015625 C-4.88801025 8.33394775 -4.89711426 7.50773926 -4.90649414 6.65649414 C-4.9136457 4.80331866 -4.86669145 2.95016317 -4.81640625 1.09765625 C-3.81640625 0.09765625 -3.81640625 0.09765625 0 0 Z " fill="#0C5190" transform="translate(84.81640625,70.90234375)"/>
<path d="M0 0 C5.61 0 11.22 0 17 0 C17.09765625 7.71484375 17.09765625 7.71484375 17 10 C14.88948256 12.11051744 10.84126302 12.04423657 7.9375 12.5625 C6.79958008 12.77036133 6.79958008 12.77036133 5.63867188 12.98242188 C3.75975025 13.32511827 1.87995299 13.6630073 0 14 C0 9.38 0 4.76 0 0 Z " fill="#044C8D" transform="translate(81,93)"/>
<path d="M0 0 C4.29 0 8.58 0 13 0 C13 5.61 13 11.22 13 17 C7.8920712 14.4460356 3.72764762 11.35282961 0 7 C-0.76539191 4.26205445 -0.53412113 2.84864603 0 0 Z " fill="#10528D" transform="translate(119,13)"/>
<path d="M0 0 C-1.02738281 0.4846875 -2.05476563 0.969375 -3.11328125 1.46875 C-10.80638247 5.16594259 -17.89269042 8.97810453 -24.66796875 14.23828125 C-27.02361988 16.0178435 -29.44492146 17.52504347 -32 19 C-31.67 16.36 -31.34 13.72 -31 11 C-31.66 10.67 -32.32 10.34 -33 10 C-8.90986473 -2.50768048 -8.90986473 -2.50768048 0 0 Z " fill="#687D59" transform="translate(164,127)"/>
<path d="M0 0 C1.58206057 0.00667536 3.16410534 0.0186375 4.74609375 0.03515625 C5.55240234 0.03966797 6.35871094 0.04417969 7.18945312 0.04882812 C9.18753131 0.06065107 11.18557158 0.07858711 13.18359375 0.09765625 C13.18359375 2.73765625 13.18359375 5.37765625 13.18359375 8.09765625 C10.3713967 8.29149804 7.55905179 8.47802228 4.74609375 8.66015625 C3.54243164 8.74426758 3.54243164 8.74426758 2.31445312 8.83007812 C0.27297264 8.95928575 -1.77186994 9.03278355 -3.81640625 9.09765625 C-4.81640625 8.09765625 -4.81640625 8.09765625 -4.94140625 4.59765625 C-4.78157401 0.12235348 -4.78157401 0.12235348 0 0 Z " fill="#1F5D95" transform="translate(107.81640625,92.90234375)"/>
<path d="M0 0 C0.77472656 0.00451172 1.54945313 0.00902344 2.34765625 0.01367188 C4.23180524 0.02530242 6.11591365 0.04323094 8 0.0625 C8 0.3925 8 0.7225 8 1.0625 C6.69546875 1.23265625 5.3909375 1.4028125 4.046875 1.578125 C-4.77562561 2.78334311 -13.1650474 3.97454128 -21.4921875 7.29296875 C-24.42340211 8.19242245 -26.95124204 8.19138335 -30 8.0625 C-29.67 7.0725 -29.34 6.0825 -29 5.0625 C-26.55859375 3.9296875 -26.55859375 3.9296875 -23.4375 2.9375 C-21.91962891 2.43863281 -21.91962891 2.43863281 -20.37109375 1.9296875 C-13.56371993 0.17854383 -6.98181312 -0.07865127 0 0 Z " fill="#689940" transform="translate(159,118.9375)"/>
<path d="M0 0 C-0.804375 0.28875 -1.60875 0.5775 -2.4375 0.875 C-5.1326468 1.73262568 -5.1326468 1.73262568 -6 4 C-4.68 4.33 -3.36 4.66 -2 5 C-8.93 8.465 -8.93 8.465 -16 12 C-16 11.34 -16 10.68 -16 10 C-16.66 10 -17.32 10 -18 10 C-18 9.34 -18 8.68 -18 8 C-17.34 8 -16.68 8 -16 8 C-16 7.34 -16 6.68 -16 6 C-16.66 5.34 -17.32 4.68 -18 4 C-15.75438718 3.13237686 -13.50473745 2.2807897 -11.25 1.4375 C-10.61578125 1.19064453 -9.9815625 0.94378906 -9.328125 0.68945312 C-5.88990821 -0.58197079 -3.47831118 -1.46686355 0 0 Z " fill="#6D9948" transform="translate(135,123)"/>
<path d="M0 0 C-2.49056142 1.35409164 -4.99005045 2.68272152 -7.5 4 C-8.19609375 4.3815625 -8.8921875 4.763125 -9.609375 5.15625 C-14.68721815 7.78920571 -18.28836884 8.41164909 -24 8 C-23.67 7.01 -23.34 6.02 -23 5 C-20.26953125 3.6484375 -20.26953125 3.6484375 -16.8125 2.375 C-15.68457031 1.94960937 -14.55664062 1.52421875 -13.39453125 1.0859375 C-8.57327029 -0.45642216 -4.90059612 -1.39229682 0 0 Z " fill="#517739" transform="translate(164,127)"/>
<path d="M0 0 C5.61 0 11.22 0 17 0 C17 3.3 17 6.6 17 10 C15.35 10.33 13.7 10.66 12 11 C12.66 10.34 13.32 9.68 14 9 C14.16677282 5.41656024 14.16677282 5.41656024 14 2 C9.71 2 5.42 2 1 2 C1 5.96 1 9.92 1 14 C0.67 14 0.34 14 0 14 C0 9.38 0 4.76 0 0 Z " fill="#296193" transform="translate(81,93)"/>
<path d="M0 0 C0 0.33 0 0.66 0 1 C-3.20825562 1.05849554 -6.41637233 1.09376162 -9.625 1.125 C-10.52863281 1.14175781 -11.43226563 1.15851563 -12.36328125 1.17578125 C-17.32750152 1.21201643 -21.34411907 0.96444146 -26 -1 C-17.98336223 -5.668622 -8.25501008 -2.6824791 0 0 Z " fill="#A0C661" transform="translate(165,114)"/>
<path d="M0 0 C1.65 0 3.3 0 5 0 C5 5.28 5 10.56 5 16 C3.68 15.67 2.36 15.34 1 15 C0.67 10.05 0.34 5.1 0 0 Z " fill="#054B89" transform="translate(93,72)"/>
<path d="M0 0 C0.77472656 0.00451172 1.54945313 0.00902344 2.34765625 0.01367188 C4.23180524 0.02530242 6.11591365 0.04323094 8 0.0625 C8 0.3925 8 0.7225 8 1.0625 C0.74 2.0525 -6.52 3.0425 -14 4.0625 C-14 3.4025 -14 2.7425 -14 2.0625 C-14.99 1.7325 -15.98 1.4025 -17 1.0625 C-11.28094617 0.23713655 -5.7732851 -0.06503701 0 0 Z " fill="#8DAA6F" transform="translate(159,118.9375)"/>
<path d="M0 0 C0.33 0.99 0.66 1.98 1 3 C-1.70879335 4.35439668 -4.00933268 4.06501451 -7 4 C-6.67 3.01 -6.34 2.02 -6 1 C-4 0 -4 0 0 0 Z " fill="#619537" transform="translate(136,123)"/>
<path d="M0 0 C-3.44833324 2.05257931 -5.31661591 3.0632763 -9.375 2.6875 C-10.24125 2.460625 -11.1075 2.23375 -12 2 C-8.63758153 -1.36241847 -4.39594827 -1.5216744 0 0 Z " fill="#688555" transform="translate(164,127)"/>
<path d="M0 0 C1.53202706 0.25195908 3.05257128 0.57596777 4.5625 0.9375 C5.38878906 1.13214844 6.21507812 1.32679687 7.06640625 1.52734375 C8.02353516 1.76130859 8.02353516 1.76130859 9 2 C9 2.33 9 2.66 9 3 C2.9453125 3.1953125 2.9453125 3.1953125 1 3 C0.34 2.34 -0.32 1.68 -1 1 C-0.67 0.67 -0.34 0.34 0 0 Z " fill="#94C054" transform="translate(151,111)"/>
<path d="M0 0 C0.66 0.33 1.32 0.66 2 1 C-1.465 3.97 -1.465 3.97 -5 7 C-3.92643531 2.70574125 -3.4915227 2.25259529 0 0 Z " fill="#1C5690" transform="translate(84,27)"/>
</svg>
